<?xml version="1.0" encoding="utf-8"?>
<!-- Generator: Adobe Illustrator 23.0.1, SVG Export Plug-In . SVG Version: 6.00 Build 0)  -->
<svg version="1.1" id="Layer_1" xmlns="http://www.w3.org/2000/svg" xmlns:xlink="http://www.w3.org/1999/xlink" x="0px" y="0px"
	 viewBox="0 0 186.3 186.3" style="enable-background:new 0 0 186.3 186.3;" xml:space="preserve">
<style type="text/css">
	.st0{fill:none;stroke:#1D252C;stroke-width:4.7082;stroke-miterlimit:10;}
	.st1{fill:#1D252C;}
</style>
<g>
	<path class="st0" d="M103.1,166.8H83.7V69.1c0-5.3,4.4-9.7,9.7-9.7h0c5.3,0,9.7,4.4,9.7,9.7V166.8z"/>
	<path class="st1" d="M93.2,17.5c-26.3,0-48.2,18.8-50.9,44.8h4.3c0,0,0,0,0-0.1h14.2v106.7h4.1V62.2h0v-4.1H47.3
		c4.4-20.8,23.1-36.4,45.9-36.4c24.3,0,43.9,17.7,46.6,40.5h4.3C141.3,36.2,119.3,17.5,93.2,17.5z"/>
	<g>
		<rect x="60.7" y="76.6" class="st1" width="4.6" height="58.6"/>
		<path class="st1" d="M93.1,35.1c-10.9,0-20.6,5.4-26.5,13.7h5.8c5.1-5.6,12.5-9.1,20.6-9.1c15.4,0,27.9,12.5,27.9,27.9v101.1h4.6
			V67.6C125.6,49.7,111,35.1,93.1,35.1z"/>
	</g>
</g>
</svg>
