<?xml version="1.0" encoding="utf-8"?>
<!-- Generator: Adobe Illustrator 23.0.1, SVG Export Plug-In . SVG Version: 6.00 Build 0)  -->
<svg version="1.1" id="Layer_1" xmlns="http://www.w3.org/2000/svg" xmlns:xlink="http://www.w3.org/1999/xlink" x="0px" y="0px"
	 viewBox="0 0 186.3 186.3" style="enable-background:new 0 0 186.3 186.3;" xml:space="preserve">
<style type="text/css">
	.st0{fill:none;stroke:#1D252C;stroke-width:3.2157;stroke-miterlimit:10;}
</style>
<path class="st0" d="M107.6,55.1h18.5 M120.7,54.4C120,56.5,96,110,96,110 M96,110h43.2l-23.3-43.9H65.1c-0.6,0-0.9,0.7-0.6,1.1
	L96,110z M82.2,47.5l-13.7,6.9l-21.3,54.9 M168.6,109.3c0,16.3-13.2,29.5-29.5,29.5s-29.5-13.2-29.5-29.5
	c0-16.3,13.2-29.5,29.5-29.5S168.6,93.1,168.6,109.3z M19.1,118.2c-0.9-2.8-1.4-5.8-1.4-8.9c0-16.3,13.2-29.5,29.5-29.5
	s29.5,13.2,29.5,29.5c0,16.3-13.2,29.5-29.5,29.5c-6.4,0-12.4-2.1-17.3-5.6 M21,95.8c1.4-2.6,3.1-5.1,5.3-7.3
	C37.9,77,56.5,77,68,88.5s11.5,30.2,0,41.7c-11.5,11.5-30.2,11.5-41.7,0c-4.6-4.6-7.3-10.2-8.3-16.2"/>
</svg>
