<?xml version="1.0" encoding="utf-8"?>
<!-- Generator: Adobe Illustrator 23.0.1, SVG Export Plug-In . SVG Version: 6.00 Build 0)  -->
<svg version="1.1" id="Layer_1" xmlns="http://www.w3.org/2000/svg" xmlns:xlink="http://www.w3.org/1999/xlink" x="0px" y="0px"
	 viewBox="0 0 278.8 74.1" style="enable-background:new 0 0 278.8 74.1;" xml:space="preserve">
<style type="text/css">
	.st0{fill:#FFFFFF;}
</style>
<g>
	<path class="st0" d="M40.8,67.1V14.5l-7.5,3.8v7.5l-7.5,3.8V22l-7.5,3.8v7.5L10.7,37c0-16.6,13.5-30.1,30.1-30.1
		c14.2,0,26.1,9.8,29.3,23l-6.7,3.3l7.5,3.8C70.9,53.7,57.4,67.1,40.8,67.1 M40.9,1.4C21.2,1.4,5.2,17.3,5.2,37s16,35.7,35.7,35.7
		s35.7-16,35.7-35.7C76.5,17.3,60.6,1.4,40.9,1.4"/>
	<path class="st0" d="M91.4,48.5h-2.2v7.8h2.2c2,0,2.4-1.6,2.4-3.9C93.8,50.1,93.3,48.5,91.4,48.5 M91.3,58.6h-2.2v8.8h-2.5V46.2
		h4.7c3.2,0,5,1.4,5,6.1C96.3,56.7,94.8,58.6,91.3,58.6"/>
	<path class="st0" d="M115.4,50.4l-2,9.7h3.9L115.4,50.4z M118.9,67.3l-1-5H113l-1,5h-2.7l4.9-21.1h2.5l4.9,21.1H118.9z"/>
	<path class="st0" d="M141.4,48.5h-2.3V56h2.3c2,0,2.4-1.5,2.4-3.8C143.8,50,143.4,48.5,141.4,48.5 M144.4,67.3l-2.9-9.1h-2.3v9.1
		h-2.5V46.2h4.8c3.2,0,5,1.4,5,6c0,2.9-0.7,4.6-2.5,5.5l3.2,9.6H144.4z"/>
	<polygon class="st0" points="167.4,48.5 167.4,67.3 164.8,67.3 164.8,48.5 161.3,48.5 161.3,46.2 170.9,46.2 170.9,48.5 	"/>
	<polygon class="st0" points="194.4,67.3 189,52.9 189,67.3 186.4,67.3 186.4,46.2 188.8,46.2 194.2,60.7 194.2,46.2 196.7,46.2 
		196.7,67.3 	"/>
	<polygon class="st0" points="213.6,67.3 213.6,46.2 221.7,46.2 221.7,48.5 216.1,48.5 216.1,55.6 220.9,55.6 220.9,57.9 
		216.1,57.9 216.1,65 221.7,65 221.7,67.3 	"/>
	<path class="st0" d="M242.6,48.5h-2.2V56h2.2c2,0,2.4-1.5,2.4-3.8C245,50,244.6,48.5,242.6,48.5 M245.6,67.3l-2.9-9.1h-2.3v9.1
		h-2.5V46.2h4.8c3.2,0,5,1.4,5,6c0,2.9-0.7,4.6-2.5,5.5l3.2,9.6H245.6z"/>
	<path class="st0" d="M272.3,66.2c-0.8,0.8-2,1.3-3.7,1.3c-1.6,0-2.9-0.4-3.7-1.3c-1-1-1.3-2.2-1.3-4.4h2.5c0,1.4,0.1,2.2,0.7,2.8
		c0.4,0.4,0.9,0.6,1.7,0.6c0.9,0,1.4-0.3,1.8-0.7c0.6-0.6,0.7-1.4,0.7-2.8c0-2.4-0.4-3.2-2.1-3.9l-2.4-1c-2.2-0.9-2.9-2.1-2.9-5.3
		c0-1.8,0.5-3.3,1.6-4.3c0.8-0.8,2-1.2,3.3-1.2c1.5,0,2.7,0.4,3.5,1.2c1.1,1,1.4,2.4,1.4,4.3H271c0-1.1-0.1-1.9-0.7-2.5
		c-0.4-0.4-0.9-0.7-1.7-0.7c-0.7,0-1.3,0.3-1.6,0.6c-0.5,0.6-0.7,1.4-0.7,2.5c0,2.1,0.3,2.7,2,3.4l2.4,1c2.4,1,3,2.5,3,5.8
		C273.6,63.8,273.3,65.2,272.3,66.2"/>
	<path class="st0" d="M100.8,30.7c0,0.9-0.2,1.9-0.5,2.7c-0.4,0.9-0.9,1.6-1.5,2.3c-0.6,0.6-1.4,1.2-2.2,1.6
		c-0.8,0.4-1.8,0.6-2.7,0.6c-0.8,0-1.7-0.1-2.5-0.3c-0.9-0.2-1.6-0.6-2.3-1.2c-0.7-0.6-1.3-1.3-1.7-2.2c-0.4-0.9-0.7-2.1-0.7-3.5
		V13.6c0-1,0.2-1.9,0.5-2.8c0.3-0.9,0.8-1.6,1.5-2.2C89.2,8,90,7.5,90.8,7.1c0.9-0.4,1.8-0.5,2.9-0.5c1,0,1.9,0.2,2.8,0.5
		c0.9,0.4,1.6,0.9,2.2,1.5s1.1,1.4,1.5,2.3c0.4,0.9,0.5,1.9,0.5,3v1.7h-4.4v-1.5c0-0.9-0.2-1.6-0.7-2.2c-0.5-0.6-1.1-1-2-1
		c-1.1,0-1.8,0.3-2.2,1c-0.4,0.7-0.5,1.5-0.5,2.6v15.7c0,0.9,0.2,1.6,0.6,2.2c0.4,0.6,1.1,0.9,2.1,0.9c0.3,0,0.6-0.1,0.9-0.1
		c0.3-0.1,0.6-0.3,0.9-0.5s0.5-0.5,0.7-0.9s0.3-0.9,0.3-1.5v-1.5h4.4C100.8,28.8,100.8,30.7,100.8,30.7z"/>
	<path class="st0" d="M112.2,15.7L112.2,15.7L110,26.8h4.4L112.2,15.7z M110.4,6.8h3.7l6.9,30.7h-4.4l-1.3-6.6h-6l-1.3,6.6h-4.4
		L110.4,6.8z"/>
	<path class="st0" d="M137.3,15.7h-4.4v-1c0-1-0.2-1.9-0.7-2.6s-1.3-1.1-2.4-1.1c-0.6,0-1.1,0.1-1.5,0.3c-0.4,0.2-0.7,0.5-0.9,0.9
		c-0.2,0.4-0.4,0.8-0.5,1.3s-0.1,1-0.1,1.5c0,0.6,0,1.1,0.1,1.5c0,0.4,0.2,0.8,0.3,1.1c0.2,0.3,0.4,0.6,0.8,0.8
		c0.3,0.2,0.8,0.5,1.4,0.7l3.4,1.3c1,0.4,1.8,0.8,2.4,1.3c0.6,0.5,1.1,1.1,1.4,1.8c0.3,0.7,0.6,1.4,0.7,2.3c0.1,0.9,0.2,1.9,0.2,3
		c0,1.3-0.1,2.5-0.4,3.6c-0.3,1.1-0.7,2.1-1.3,2.8c-0.6,0.8-1.4,1.4-2.3,1.9c-1,0.5-2.2,0.7-3.6,0.7c-1.1,0-2.1-0.2-3-0.6
		c-0.9-0.4-1.7-0.9-2.4-1.5c-0.7-0.6-1.2-1.4-1.6-2.3c-0.4-0.9-0.6-1.9-0.6-2.9v-1.6h4.4v1.4c0,0.8,0.2,1.5,0.7,2.2
		c0.5,0.6,1.3,1,2.4,1c0.7,0,1.3-0.1,1.7-0.3s0.7-0.5,0.9-0.9c0.2-0.4,0.4-0.9,0.4-1.4c0.1-0.6,0.1-1.2,0.1-1.9c0-0.8,0-1.5-0.1-2
		s-0.2-0.9-0.4-1.2c-0.2-0.3-0.4-0.6-0.8-0.8c-0.3-0.2-0.8-0.4-1.3-0.6l-3.1-1.3c-1.9-0.8-3.2-1.8-3.8-3.1c-0.6-1.3-1-2.9-1-4.8
		c0-1.1,0.2-2.2,0.5-3.3c0.3-1,0.8-1.9,1.4-2.7c0.6-0.7,1.4-1.3,2.3-1.8c0.9-0.4,2.1-0.7,3.3-0.7c1.1,0,2.1,0.2,3,0.6
		s1.7,0.9,2.3,1.6s1.1,1.4,1.5,2.2c0.3,0.8,0.5,1.7,0.5,2.5v2.1H137.3z"/>
	<polygon class="st0" points="144.5,11 139.4,11 139.4,6.8 154,6.8 154,11 148.9,11 148.9,37.5 144.5,37.5 	"/>
	<polygon class="st0" points="157,6.8 161.4,6.8 161.4,33.1 170.1,33.1 170.1,37.5 157,37.5 	"/>
	<polygon class="st0" points="172.9,6.8 186,6.8 186,11 177.3,11 177.3,20 184.9,20 184.9,24.1 177.3,24.1 177.3,33.1 186,33.1 
		186,37.5 172.9,37.5 	"/>
	<polygon class="st0" points="189.3,6.8 202.4,6.8 202.4,11 193.7,11 193.7,20.3 201.3,20.3 201.3,24.4 193.7,24.4 193.7,37.5 
		189.3,37.5 	"/>
	<path class="st0" d="M209.4,30.3c0,1.1,0.3,1.8,0.9,2.3c0.6,0.5,1.3,0.8,2.1,0.8s1.5-0.2,2.1-0.8c0.6-0.5,0.9-1.3,0.9-2.3V14.1
		c0-1.1-0.3-1.8-0.9-2.3c-0.6-0.5-1.3-0.8-2.1-0.8s-1.5,0.3-2.1,0.8s-0.9,1.3-0.9,2.3V30.3z M205,14.1c0-1.2,0.2-2.3,0.6-3.3
		c0.4-0.9,1-1.7,1.7-2.3s1.5-1.1,2.4-1.4s1.8-0.5,2.7-0.5s1.8,0.2,2.6,0.5c0.9,0.3,1.7,0.8,2.4,1.4s1.3,1.4,1.7,2.3
		c0.4,1,0.6,2,0.6,3.3v16.2c0,1.3-0.2,2.4-0.6,3.3c-0.4,0.9-1,1.7-1.7,2.3s-1.5,1.1-2.4,1.4c-0.9,0.3-1.8,0.5-2.6,0.5
		c-0.9,0-1.8-0.2-2.7-0.5s-1.7-0.8-2.4-1.4c-0.7-0.6-1.3-1.4-1.7-2.3c-0.4-0.9-0.6-2-0.6-3.3V14.1z"/>
	<path class="st0" d="M228,20.5h2.5c0.8,0,1.4-0.1,1.9-0.3c0.5-0.2,0.8-0.5,1.1-0.9s0.4-0.9,0.5-1.5s0.1-1.3,0.1-2
		c0-0.8,0-1.5-0.1-2c-0.1-0.6-0.3-1.1-0.5-1.5c-0.3-0.4-0.7-0.7-1.1-0.9c-0.5-0.2-1.1-0.3-1.9-0.3H228V20.5z M223.6,6.8h7.1
		c5.2,0,7.8,3,7.8,9c0,1.8-0.3,3.3-0.8,4.6c-0.6,1.3-1.5,2.3-2.9,3.1l4.7,14h-4.7l-4.1-13.1H228v13.1h-4.4V6.8z"/>
	<path class="st0" d="M241.7,14.1c0-1.2,0.2-2.3,0.6-3.3c0.4-0.9,1-1.7,1.7-2.3s1.5-1.1,2.4-1.4s1.8-0.5,2.7-0.5s1.8,0.2,2.6,0.5
		c0.9,0.3,1.7,0.8,2.4,1.4s1.3,1.4,1.7,2.3c0.4,1,0.6,2,0.6,3.3v1.6H252v-1.6c0-1.1-0.3-1.8-0.9-2.3c-0.6-0.5-1.3-0.8-2.1-0.8
		s-1.5,0.3-2.1,0.8s-0.9,1.3-0.9,2.3v16.2c0,1.1,0.3,1.8,0.9,2.3c0.6,0.5,1.3,0.8,2.1,0.8s1.5-0.2,2.1-0.8c0.6-0.5,0.9-1.3,0.9-2.3
		v-5.8h-3.5v-3.9h7.9v9.7c0,1.3-0.2,2.4-0.6,3.3c-0.4,0.9-1,1.7-1.7,2.3s-1.5,1.1-2.4,1.4c-0.9,0.3-1.8,0.5-2.6,0.5
		c-0.9,0-1.8-0.2-2.7-0.5s-1.7-0.8-2.4-1.4c-0.7-0.6-1.3-1.4-1.7-2.3c-0.4-0.9-0.6-2-0.6-3.3V14.1z"/>
	<polygon class="st0" points="260.4,6.8 273.5,6.8 273.5,11 264.8,11 264.8,20 272.3,20 272.3,24.1 264.8,24.1 264.8,33.1 
		273.5,33.1 273.5,37.5 260.4,37.5 	"/>
</g>
</svg>
