<?xml version="1.0" encoding="utf-8"?>
<!-- Generator: Adobe Illustrator 23.0.1, SVG Export Plug-In . SVG Version: 6.00 Build 0)  -->
<svg version="1.1" id="Layer_1" xmlns="http://www.w3.org/2000/svg" xmlns:xlink="http://www.w3.org/1999/xlink" x="0px" y="0px"
	 viewBox="0 0 276.2 74.1" style="enable-background:new 0 0 276.2 74.1;" xml:space="preserve">
<style type="text/css">
	.st0{fill:#FFFFFF;}
</style>
<path class="st0" d="M113.8,37.5h4.4l-6.9-30.8h-3.7l-6.9,30.8h4.4l1.3-6.6h6L113.8,37.5z M107.3,26.7l2.2-11.2h0.1l2.2,11.2H107.3z
	 M143.8,52.3c0-4.6-1.8-6-5-6H134v21.2h2.6v-9.1h2.3l2.9,9.1h2.7l-3.2-9.6C143.1,57,143.8,55.3,143.8,52.3z M138.9,56.1h-2.3v-7.5
	h2.3c2,0,2.4,1.5,2.4,3.7C141.3,54.6,140.8,56.1,138.9,56.1z M111.5,46.3l-4.9,21.2h2.7l1-5h4.9l1,5h2.7L114,46.3H111.5z
	 M110.8,60.2l2-9.8l2,9.8H110.8z M134.7,28.7c0-1.1-0.1-2.1-0.2-3c-0.1-0.9-0.3-1.7-0.7-2.3c-0.3-0.7-0.8-1.3-1.4-1.8
	c-0.6-0.5-1.4-0.9-2.4-1.3l-3.4-1.3c-0.6-0.2-1-0.5-1.4-0.7c-0.3-0.2-0.6-0.5-0.8-0.8c-0.2-0.3-0.3-0.7-0.3-1.1
	c0-0.4-0.1-0.9-0.1-1.5c0-0.5,0-1,0.1-1.5c0.1-0.5,0.2-0.9,0.5-1.3c0.2-0.4,0.5-0.7,0.9-0.9c0.4-0.2,0.9-0.3,1.5-0.3
	c1.1,0,1.9,0.4,2.4,1.1c0.5,0.7,0.7,1.6,0.7,2.6v1h4.4v-2.2c0-0.9-0.2-1.7-0.5-2.5c-0.3-0.8-0.8-1.6-1.5-2.2
	C132,8,131.3,7.4,130.4,7c-0.9-0.4-1.9-0.6-3-0.6c-1.3,0-2.4,0.2-3.3,0.7c-1,0.5-1.7,1-2.4,1.8c-0.6,0.8-1.1,1.6-1.4,2.7
	c-0.3,1-0.5,2.1-0.5,3.3c0,1.9,0.3,3.5,1,4.8c0.6,1.3,1.9,2.3,3.8,3.1l3.2,1.3c0.5,0.2,1,0.4,1.3,0.6c0.3,0.2,0.6,0.5,0.8,0.8
	c0.2,0.3,0.3,0.7,0.4,1.3c0.1,0.5,0.1,1.2,0.1,2c0,0.7,0,1.3-0.1,1.9c-0.1,0.6-0.2,1.1-0.4,1.5c-0.2,0.4-0.5,0.7-1,0.9
	c-0.4,0.2-1,0.3-1.8,0.3c-1.1,0-1.9-0.3-2.4-1c-0.5-0.7-0.7-1.4-0.7-2.2v-1.4h-4.4v1.6c0,1,0.2,2,0.6,2.9c0.4,0.9,0.9,1.7,1.6,2.3
	c0.7,0.7,1.5,1.2,2.4,1.5c0.9,0.4,1.9,0.6,3,0.6c1.4,0,2.6-0.2,3.6-0.7c1-0.5,1.8-1.1,2.4-1.9c0.6-0.8,1-1.7,1.3-2.9
	C134.6,31.2,134.7,30,134.7,28.7z M88.5,46.3h-4.8v21.2h2.6v-8.8h2.2c3.5,0,5-1.8,5-6.2C93.6,47.8,91.7,46.3,88.5,46.3z M88.6,56.4
	h-2.3v-7.8h2.3c2,0,2.4,1.6,2.4,3.9C91,54.8,90.6,56.4,88.6,56.4z M37.8,1.2C18,1.2,2,17.3,2,37s16,35.8,35.8,35.8
	c19.8,0,35.8-16,35.8-35.8S57.6,1.2,37.8,1.2z M68,37c0,16.7-13.5,30.3-30.2,30.3V14.4l-7.6,3.8v7.6l-7.6,3.8v-7.6L15,25.7v7.6
	L7.5,37C7.5,20.3,21,6.8,37.7,6.8c14.2,0,26.2,9.9,29.4,23.1l-6.7,3.4L68,37z M52.8,29.5v-7.6l-7.6,3.8L52.8,29.5z M96,8.5
	c-0.6-0.6-1.4-1.2-2.3-1.5C92.9,6.6,92,6.4,91,6.4c-1.1,0-2,0.2-2.9,0.5c-0.9,0.4-1.6,0.9-2.3,1.5c-0.6,0.6-1.1,1.4-1.5,2.2
	c-0.3,0.9-0.5,1.8-0.5,2.8v17c0,1.4,0.2,2.6,0.7,3.5c0.4,0.9,1,1.7,1.7,2.2c0.7,0.6,1.5,1,2.3,1.2c0.9,0.2,1.7,0.3,2.6,0.3
	c1,0,1.9-0.2,2.7-0.6c0.9-0.4,1.6-0.9,2.2-1.6c0.6-0.6,1.1-1.4,1.5-2.3c0.4-0.9,0.5-1.8,0.5-2.7v-1.9h-4.4v1.5
	c0,0.6-0.1,1.1-0.3,1.5c-0.2,0.4-0.4,0.7-0.7,1c-0.3,0.2-0.6,0.4-0.9,0.5c-0.3,0.1-0.6,0.1-0.9,0.1c-1,0-1.7-0.3-2.1-0.9
	c-0.4-0.6-0.6-1.4-0.6-2.3V14.4c0-1,0.2-1.9,0.5-2.6c0.4-0.7,1.1-1,2.2-1c0.8,0,1.5,0.3,2,1c0.5,0.6,0.7,1.4,0.7,2.3v1.5h4.4v-1.7
	c0-1.1-0.2-2.1-0.5-3C97.2,9.9,96.7,9.1,96,8.5z M268.7,56l-2.4-1c-1.7-0.7-2-1.3-2-3.4c0-1.1,0.2-2,0.7-2.5
	c0.4-0.4,0.9-0.7,1.6-0.7c0.8,0,1.4,0.3,1.7,0.7c0.5,0.6,0.7,1.4,0.7,2.6h2.6c0-1.9-0.3-3.3-1.4-4.3c-0.8-0.8-2-1.2-3.5-1.2
	c-1.4,0-2.5,0.4-3.4,1.2c-1.1,1-1.6,2.5-1.6,4.3c0,3.2,0.7,4.4,2.9,5.3l2.4,1c1.7,0.7,2.1,1.5,2.1,3.9c0,1.4-0.1,2.2-0.7,2.8
	c-0.4,0.4-1,0.7-1.8,0.7c-0.8,0-1.4-0.3-1.7-0.7c-0.6-0.6-0.7-1.4-0.7-2.8h-2.6c0,2.3,0.3,3.5,1.3,4.5c0.8,0.8,2.1,1.3,3.7,1.3
	c1.7,0,2.9-0.5,3.7-1.3c1-1,1.3-2.4,1.3-4.6C271.6,58.5,271.1,57,268.7,56z M232.6,23.4c1.4-0.8,2.4-1.8,3-3.1
	c0.6-1.3,0.8-2.8,0.8-4.6c0-6-2.6-9.1-7.8-9.1h-7.1v30.8h4.4V24.4h2.6l4.1,13.2h4.7L232.6,23.4z M231.8,17.7
	c-0.1,0.6-0.2,1.1-0.5,1.5c-0.2,0.4-0.6,0.7-1.1,0.9c-0.5,0.2-1.1,0.3-1.9,0.3h-2.5v-9.6h2.3c0.8,0,1.5,0.1,1.9,0.3
	c0.5,0.2,0.9,0.5,1.1,0.9c0.3,0.4,0.5,0.9,0.5,1.5c0.1,0.6,0.1,1.3,0.1,2.1C232,16.4,231.9,17.1,231.8,17.7z M245.5,52.3
	c0-4.6-1.8-6-5-6h-4.8v21.2h2.6v-9.1h2.3l2.9,9.1h2.7l-3.2-9.6C244.8,57,245.5,55.3,245.5,52.3z M240.6,56.1h-2.3v-7.5h2.3
	c2,0,2.4,1.5,2.4,3.7C243,54.6,242.5,56.1,240.6,56.1z M215.2,35.9c0.7-0.6,1.3-1.4,1.7-2.3c0.4-0.9,0.7-2,0.7-3.3V14
	c0-1.2-0.2-2.3-0.7-3.3c-0.4-1-1-1.7-1.7-2.4c-0.7-0.6-1.5-1.1-2.4-1.4c-0.9-0.3-1.8-0.5-2.7-0.5c-0.9,0-1.8,0.2-2.7,0.5
	c-0.9,0.3-1.7,0.8-2.4,1.4c-0.7,0.6-1.3,1.4-1.7,2.4c-0.4,1-0.6,2.1-0.6,3.3v16.3c0,1.3,0.2,2.4,0.6,3.3c0.4,0.9,1,1.7,1.7,2.3
	c0.7,0.6,1.5,1.1,2.4,1.4c0.9,0.3,1.8,0.5,2.7,0.5c0.9,0,1.8-0.2,2.7-0.5C213.7,37,214.5,36.5,215.2,35.9z M210.2,33.4
	c-0.8,0-1.5-0.2-2.1-0.8c-0.6-0.5-0.9-1.3-0.9-2.4V14c0-1.1,0.3-1.9,0.9-2.4c0.6-0.5,1.3-0.8,2.1-0.8c0.8,0,1.5,0.3,2.1,0.8
	c0.6,0.5,0.9,1.3,0.9,2.4v16.3c0,1.1-0.3,1.9-0.9,2.4C211.7,33.1,211,33.4,210.2,33.4z M211.4,67.5h8.2v-2.3h-5.6V58h4.8v-2.3h-4.8
	v-7.1h5.6v-2.3h-8.2V67.5z M252.1,8.3c-0.7-0.6-1.5-1.1-2.4-1.4c-0.9-0.3-1.8-0.5-2.7-0.5c-0.9,0-1.8,0.2-2.7,0.5
	c-0.9,0.3-1.7,0.8-2.4,1.4c-0.7,0.6-1.3,1.4-1.7,2.4c-0.4,1-0.6,2.1-0.6,3.3v16.3c0,1.3,0.2,2.4,0.6,3.3c0.4,0.9,1,1.7,1.7,2.3
	c0.7,0.6,1.5,1.1,2.4,1.4c0.9,0.3,1.8,0.5,2.7,0.5c0.9,0,1.8-0.2,2.7-0.5c0.9-0.3,1.7-0.8,2.4-1.4c0.7-0.6,1.3-1.4,1.7-2.3
	c0.4-0.9,0.6-2,0.6-3.3v-9.7h-7.9v3.9h3.5v5.8c0,1.1-0.3,1.9-0.9,2.4c-0.6,0.5-1.3,0.8-2.1,0.8c-0.8,0-1.5-0.2-2.1-0.8
	c-0.6-0.5-0.9-1.3-0.9-2.4V14c0-1.1,0.3-1.9,0.9-2.4c0.6-0.5,1.3-0.8,2.1-0.8c0.8,0,1.5,0.3,2.1,0.8c0.6,0.5,0.9,1.3,0.9,2.4v1.6
	h4.4V14c0-1.2-0.2-2.3-0.6-3.3C253.4,9.7,252.8,8.9,252.1,8.3z M271.5,33.1h-8.7v-9.1h7.6v-4.2h-7.6v-9.1h8.7V6.7h-13.2v30.8h13.2
	V33.1z M191.9,60.8l-5.4-14.5h-2.4v21.2h2.6V53l5.5,14.5h2.3V46.3h-2.6L191.9,60.8z M158.8,48.6h3.6v18.9h2.6V48.6h3.5v-2.3h-9.7
	V48.6z M167.6,33.1h-8.7V6.7h-4.4v30.8h13.2V33.1z M136.8,10.8h5.1v26.7h4.4V10.8h5.1V6.7h-14.6V10.8z M170.5,37.5h13.2v-4.4h-8.7
	v-9.1h7.6v-4.2h-7.6v-9.1h8.7V6.7h-13.2V37.5z M187,37.5h4.4V24.4h7.6v-4.2h-7.6v-9.4h8.7V6.7H187V37.5z"/>
</svg>
