<?xml version="1.0" encoding="utf-8"?>
<!-- Generator: Adobe Illustrator 23.0.1, SVG Export Plug-In . SVG Version: 6.00 Build 0)  -->
<svg version="1.1" id="Layer_1" xmlns="http://www.w3.org/2000/svg" xmlns:xlink="http://www.w3.org/1999/xlink" x="0px" y="0px"
	 viewBox="0 0 186.3 186.3" style="enable-background:new 0 0 186.3 186.3;" xml:space="preserve">
<style type="text/css">
	.st0{fill:#FF4438;}
</style>
<g>
	<path class="st0" d="M161,83c0-8.4-3.6-16-9.3-21.3l6.6-21.8H27.9l6.6,21.8C28.9,67,25.3,74.6,25.3,83c0,14.5,10.7,26.6,24.5,28.9
		l10,32.7l5.1-1.5l-9.4-30.8c4.8,0,9.4-1.8,13.5-4l24.1-13.5v-6L83,83l10.1-5.8l31.6,17.9c2,1.4,4.4,2,7,2c8,0,14.1-6.2,14.1-14.1
		s-6.2-14.1-14.1-14.1V74c5,0,9,4,9,9c0,5-4,9-9,9c-1.6,0-3.2-0.4-4.4-1.2L98.3,74.2l21.5-12.1c3.6-2,7.6-3.2,11.9-3.2
		c13.3,0,24.1,10.7,24.1,24.1S145.1,107,131.8,107c-4.4,0-8.4-1.2-11.9-3.2l-13.3-7.8l-2.6,4.4l13.3,7.8c3.9,2.4,8.6,3.8,13.6,3.9
		l-8.8,29H75.3v5.3h50.6l10.5-34.6C150.3,109.6,161,97.5,161,83z M77.6,80l-16.1-9.2c-2-1.4-4.4-2-7-2c-8,0-14.1,6.2-14.1,14.1
		s6.2,14.1,14.1,14.1c2.6,0,5-0.6,7-2L77.6,86l10.1,5.8l-21.3,12.1c-3.6,2-7.6,3.2-11.9,3.2C41.2,107,30.5,96.3,30.5,83
		s10.7-24.1,24.1-24.1c4.4,0,8.4,1.2,11.9,3.2L88,74.2L77.6,80z M72.5,83l-13.5,7.8c-1.2,0.8-2.8,1.2-4.4,1.2c-5,0-9-4-9-9
		c0-5,4-9,9-9c1.6,0,3.2,0.4,4.4,1.2L72.5,83z M117.2,57.7L93.2,71.2L69.1,57.7c-4.4-2.4-9.2-4-14.5-4c-5.7,0-11,1.6-15.5,4.4l-4-13
		h116l-4,13c-4.5-2.8-9.8-4.4-15.5-4.4C126.4,53.5,121.4,55.3,117.2,57.7z"/>
</g>
</svg>
