<?xml version="1.0" encoding="utf-8"?>
<!-- Generator: Adobe Illustrator 23.0.1, SVG Export Plug-In . SVG Version: 6.00 Build 0)  -->
<svg version="1.1" id="Layer_1" xmlns="http://www.w3.org/2000/svg" xmlns:xlink="http://www.w3.org/1999/xlink" x="0px" y="0px"
	 viewBox="0 0 186.3 186.3" style="enable-background:new 0 0 186.3 186.3;" xml:space="preserve">
<style type="text/css">
	.st0{fill:#FFFFFF;}
</style>
<g>
	<path class="st0" d="M62.5,84.5H83v14.9c-5.7,4.4-12.4,6.8-19.4,6.8c-21.4,0-38.7-17.1-38.7-38.2c0-21.1,17.4-38.2,38.7-38.2
		c10.6,0,20.8,3.7,29,10.3l-6.1,6c-6.6-5.2-14.5-8-22.8-8c-20.3,0-36.8,16.5-36.8,36.8V76h5.5v-1.1c0-17.2,14-31.3,31.3-31.3
		c8.4,0,16.2,3.3,22.1,9.3l0.8,0.8L100.4,40l-0.8-0.8c-9.5-9.5-22.6-15-36-15c-24.4,0-44.3,19.6-44.3,43.8
		c0,24.1,19.9,43.8,44.3,43.8c9,0,17.2-3.2,24.5-9.5l0.4-0.3V78.9H68.3v-8.4H97v35c-8.3,9.1-20.7,14.5-33.3,14.5
		c-12.4,0-24-4.7-32.7-13.2C22.2,98.3,17.5,87,17.5,74.9v-1.1h-5.5v1.1c0,28,23.2,50.7,51.7,50.7c14.9,0,28.9-6.4,38.6-17.6l0.3-0.3
		V65H62.5V84.5z"/>
	<path class="st0" d="M163.9,109.4c3.3-4.6,5-10.2,5-16.3c0-16.3-12.4-28.1-29.5-28.1H97v97.1h45.9c17.7,0,31.5-13.3,31.5-30.2
		C174.4,123.1,170.7,115.1,163.9,109.4z M142.9,156.6h-40.4V70.6l36.9,0c14.1,0.4,24,9.7,24,22.5c0,4.9-1.4,9.4-4,13
		c-5-2.8-10.7-4.3-16.5-4.3h-25.7V84.5h21.7c4.6,0,8.7,4.1,8.7,8.6v1.1h5.5v-1.1c0-7.8-6.4-14.2-14.3-14.2h-27.2v28.3h31.2
		c4.4,0,8.8,1.1,12.5,3c-4.3,3.5-9.9,5.4-15.9,5.5h-27.8v32.1h31.1c9.1,0,16.2-7,16.2-16v-1.1h-5.5v1.1c0,5.9-4.7,10.5-10.6,10.5
		h-25.6v-21h22.3c8.1,0,15.4-2.7,20.8-7.7c5.5,4.8,8.6,11.3,8.6,18.4C168.9,145.8,157.5,156.6,142.9,156.6z"/>
</g>
</svg>
