<?xml version="1.0" encoding="utf-8"?>
<!-- Generator: Adobe Illustrator 23.0.1, SVG Export Plug-In . SVG Version: 6.00 Build 0)  -->
<svg version="1.1" id="Layer_1" xmlns="http://www.w3.org/2000/svg" xmlns:xlink="http://www.w3.org/1999/xlink" x="0px" y="0px"
	 viewBox="0 0 186.3 186.3" style="enable-background:new 0 0 186.3 186.3;" xml:space="preserve">
<style type="text/css">
	.st0{fill:#1D252C;}
	.st1{fill:#FF4438;}
</style>
<g>
	<g>
		<path class="st0" d="M66,108.4h23.2v24.4c-7.5,6.5-16.5,10.6-27.3,10.6c-27.3,0-49.4-21.9-49.4-48.9c0-27,22.2-48.9,49.4-48.9
			c15.7,0,30,6.5,40.3,16.8L88.1,76.4c-6.7-6.8-16-11-26.2-11c-20.4,0-37.1,16.7-37.1,37.1H21c0-22.6,18.3-40.9,40.9-40.9
			c9.4,0,18.6,3.2,26.2,9.6l8.8-8.7c-9.6-8.3-21.9-13.1-35.1-13.1c-25.2,0-45.7,20.2-45.7,45.1c0,24.9,20.4,45.1,45.7,45.1
			c8.8,0,17-3.2,23.5-8.4v-19H61.9V92.4h43.2v47.1c-10.6,12.3-26.1,19.7-43.2,19.7c-32.2,0-58-25.5-58-56.8h3.8
			c0,29.3,24.1,53.1,54.2,53.1c14.8,0,29.4-6.2,39.4-17.4V96.2H66V108.4z"/>
	</g>
	<g>
		<g>
			<path class="st1" d="M116.1,56.8"/>
		</g>
		<g>
			<polygon class="st1" points="94,82.9 91.7,80.4 117.3,56.9 109.1,48.5 146.3,15.5 148.6,18.1 114,48.7 122.1,57 			"/>
		</g>
	</g>
	<polygon class="st1" points="181.2,43.1 167,24 164.3,26 175.3,40.9 152.7,45.6 171.2,64.7 107.2,83.5 135.2,57.9 127.1,49.5 
		162.6,17.8 160.3,15.2 122.2,49.3 130.4,57.7 97.9,87.5 99.4,89.3 177.5,66.3 159.4,47.7 	"/>
</g>
</svg>
