<?xml version="1.0" encoding="utf-8"?>
<!-- Generator: Adobe Illustrator 23.0.1, SVG Export Plug-In . SVG Version: 6.00 Build 0)  -->
<svg version="1.1" id="Layer_1" xmlns="http://www.w3.org/2000/svg" xmlns:xlink="http://www.w3.org/1999/xlink" x="0px" y="0px"
	 viewBox="0 0 440.3 118.1" style="enable-background:new 0 0 440.3 118.1;" xml:space="preserve">
<style type="text/css">
	.st0{fill:#1D252C;}
</style>
<g>
	<g>
		<path class="st0" d="M32.7,31.2H44V43c-3.7,3.2-8,5.1-13.2,5.1c-13.3,0-24-10.6-24-23.8s10.8-23.8,24-23.8
			c7.6,0,14.6,3.2,19.6,8.2l-6.8,6.8c-3.2-3.3-7.8-5.4-12.8-5.4c-9.9,0-18,8.1-18,18h-1.8c0-11,8.9-19.9,19.9-19.9
			c4.6,0,9,1.6,12.8,4.7l4.3-4.2c-4.7-4-10.6-6.3-17.1-6.3c-12.3,0-22.2,9.8-22.2,21.9c0,12.1,9.9,21.9,22.2,21.9
			c4.3,0,8.2-1.6,11.4-4.1V33H30.7v-9.6h21v22.9c-5.1,6-12.7,9.6-21,9.6c-15.6,0-28.2-12.4-28.2-27.6h1.8
			c0,14.2,11.7,25.8,26.4,25.8c7.2,0,14.3-3,19.2-8.5V25.3H32.7V31.2z"/>
		<path class="st0" d="M99,11.5H69V9.6h28.2V3.7H62v19.7h32.1V33h-24v12.1H99v9.6H60.2V31.2H62v21.7h35.2V47H68.4V31.2h24v-5.9H60.2
			V1.9H99V11.5z"/>
		<path class="st0" d="M137.2,51.3V40.7l-23-37.9l1.6-0.9l21.5,35.3V1.9h10v52.9h-1.8L139.1,44v10.7h-1.8l-21.5-35.2v35.2h-10V1.9
			h1.8v51h6.3V17.7h2.8L137.2,51.3z M139.1,40.5l6.3,10.7V3.7h-6.3V40.5z"/>
		<path class="st0" d="M194.5,11.5h-30V9.6h28.2V3.7h-35.2v19.7h32.1V33h-24v12.1h28.8v9.6h-38.8V31.2h1.8v21.7h35.2V47h-28.8V31.2
			h24v-5.9h-32.1V1.9h38.8V11.5z"/>
		<path class="st0" d="M228.8,29.3l2.7,5.4c5.7-2.5,9.7-8,9.7-14.8c0-9.2-7.5-16.2-16.8-16.2h-23.3V1.9h23.3
			c10.4,0,18.6,7.7,18.6,18c0,7.5-4.4,13.7-10.8,16.4l9.3,18.4h-11.2L221.9,38h-12.5v-7.8H203v22.7h8.2v1.8h-10V28.4h8.2V9.6h15.1
			c5.6,0,10,4.6,10,10.3C234.5,24.1,232.2,27.7,228.8,29.3z M211.2,28.4h8l3.9,7.8h1.4c1.8,0,3.7-0.3,5.4-0.8l-3.6-7.1
			c3.7-0.8,6.4-4.2,6.4-8.3c0-4.7-3.5-8.5-8.2-8.5h-13.2V28.4z M211.2,36.1h9.7l-2.9-5.9h-6.8V36.1z M238.6,52.9l-8-15.9
			c-1.9,0.6-4,0.9-6.1,0.9H224l7.5,14.9H238.6z"/>
		<path class="st0" d="M256.5,52.9v1.8h-10.8l6.8-19.2h8.5l7.5-23.4h2.7l7.6,25.2h-16.4l-1.9,5.9H281l3.3,9.6h6.9L273.9,3.6h-8.2
			l-9.2,26l-1.7-0.6l9.6-27.2h10.9l18.6,52.9H283l-3.3-9.6h-21.8l2.5-7.8h-6.6l-5.5,15.5H256.5z M262.8,35.6h13.4L269.7,14
			L262.8,35.6z"/>
		<path class="st0" d="M313.9,52.9V11.5h-23.8V1.9h41.3v9.6h-1.8V3.7h-37.6v5.9h23.8v45.1h-10V17.4h1.8v35.5H313.9z"/>
		<path class="st0" d="M358,46.4c9.9,0,18-8.1,18-18C376.1,16,366.3,6,354.2,6c-12.3,0-22.3,10-22.3,22.3
			c0,14.2,11.6,25.8,26.2,25.8c14.6,0,26.2-11.6,26.2-25.8c0-14.2-11.6-25.8-26.2-25.8V0.7c15.6,0,28.1,12.4,28.1,27.6
			c0,15.2-12.5,27.6-28.1,27.6S330,43.5,330,28.3c0-13.3,10.9-24.1,24.2-24.1c13.1,0,23.8,10.9,23.8,24.1c0,11-8.9,19.9-19.9,19.9
			c-11,0-19.9-8.9-19.9-19.9c0-11,8.9-19.9,19.9-19.9v1.8c-9.9,0-18,8.1-18,18C340,38.2,348.1,46.4,358,46.4z"/>
		<path class="st0" d="M420.3,29.3l2.7,5.4c5.7-2.5,9.7-8,9.7-14.8c0-9.2-7.5-16.2-16.8-16.2h-23.3V1.9H416c10.4,0,18.6,7.7,18.6,18
			c0,7.5-4.4,13.7-10.8,16.4l9.3,18.4H422L413.5,38H401v-7.8h-6.3v22.7h8.2v1.8h-10V28.4h8.2V9.6H416c5.6,0,10,4.6,10,10.3
			C426.1,24.1,423.7,27.7,420.3,29.3z M402.8,28.4h8l3.9,7.8h1.4c1.8,0,3.7-0.3,5.4-0.8l-3.6-7.1c3.7-0.8,6.4-4.2,6.4-8.3
			c0-4.7-3.5-8.5-8.2-8.5h-13.2V28.4z M402.8,36.1h9.7l-2.9-5.9h-6.8V36.1z M430.2,52.9l-8-15.9c-1.9,0.6-4,0.9-6.1,0.9h-0.5
			l7.5,14.9H430.2z"/>
	</g>
	<g>
		<path class="st0" d="M268,108.4c0,4.9-3.8,7.9-9.7,7.9h-18.8c-0.5,0-0.5,0-0.5-0.6V86.3c0-0.4,0.1-0.5,0.6-0.5H257
			c6.2,0,10,3.1,10,8.2c0,3.3-1.9,6-5.8,7C265.1,101.2,268,104.9,268,108.4z M255.8,95c0-1.4-0.8-2.5-2.8-2.5h-3.5v4.9h3.5
			C255,97.4,255.8,96.4,255.8,95z M256.6,107.2c0-1.5-0.9-2.5-2.9-2.5h-4.2v5h4.2C255.8,109.7,256.6,108.7,256.6,107.2z"/>
		<path class="st0" d="M303.8,116.1c0,0.2-0.2,0.2-0.6,0.2h-11.6c-0.4,0-0.6-0.1-1.1-0.9c-1.7-2.9-4.6-7.8-4.6-7.8l-3.1,0.2v8.1
			c0,0.4,0,0.4-0.4,0.4h-9.5c-0.5,0-0.5,0-0.5-0.4V86.3c0-0.5,0.2-0.4,0.5-0.4H289c7.7,0,11.2,4.8,11.2,10.3c0,4.1-1.6,7-4.4,8.2
			c1.3,1.8,4.6,6.6,7.5,10.8C303.6,115.6,303.8,115.9,303.8,116.1z M288.8,96.9c0-2.5-1.3-3.6-4.2-3.6h-1.9v7.1h1.9
			C287.3,100.4,288.8,99.5,288.8,96.9z"/>
		<path class="st0" d="M317.5,115.9c0,0.4,0,0.4-0.5,0.4h-9.9c-0.5,0-0.5,0-0.5-0.4V86.3c0-0.5,0-0.4,0.5-0.4h9.9
			c0.4,0,0.5,0,0.5,0.4V115.9z"/>
		<path class="st0" d="M347.8,105.8c0,7.5-6,11.6-13.4,11.6c-6.1,0-10.3-2.7-12.1-6.9c-0.3-0.7-0.2-0.7,0.2-0.9l6.7-2.5
			c0.4-0.1,0.4-0.1,0.5,0.2c0.5,1.7,2.3,3,4.3,3c2.1,0,3.1-0.9,3.1-2.3c0-1.5-1.3-2-3.9-2.3c-0.3,0-0.8-0.1-1.1-0.1
			c-3.4-0.3-9.4-1.8-9.4-9.1c0-7,4.5-11.5,13.1-11.5c6.3,0,10.1,2.7,10.9,6.6c0.1,0.5,0.1,0.6-0.3,0.8l-6.3,2.3
			c-0.4,0.2-0.4,0.2-0.5-0.2c-0.7-1.7-1.9-2.6-4.1-2.6c-2.1,0-2.9,0.9-2.9,2.1c0,1.3,1.2,1.8,4.5,2.3c0.5,0.1,1,0.1,1.6,0.2
			C343.8,97.3,347.8,99.4,347.8,105.8z"/>
		<path class="st0" d="M377,93.9c0,0.3,0,0.3-0.3,0.3l-7.9-0.5v22.2c0,0.4,0,0.4-0.5,0.4h-9.8c-0.4,0-0.4,0-0.4-0.4V93.8l-8.2,0.5
			c-0.3,0-0.3,0-0.3-0.3v-7.6c0-0.4,0-0.5,0.4-0.5h26.7c0.3,0,0.4,0.1,0.4,0.5V93.9z"/>
		<path class="st0" d="M411.3,101.2c0,9.5-7.8,16.2-16.5,16.2c-9.6,0-16.5-7.1-16.5-16.3c0-9.7,7.5-16.2,16.5-16.2
			C403.3,84.9,411.3,91.2,411.3,101.2z M400.5,101.1c0-3.5-2.2-5.6-5.7-5.6c-3.5,0-5.7,2.3-5.7,5.6c0,3.7,2.3,5.9,5.7,5.9
			C398,107,400.5,104.7,400.5,101.1z"/>
		<path class="st0" d="M437.8,115.9c0,0.4,0,0.4-0.4,0.4h-21c-0.5,0-0.5,0-0.5-0.4V86.3c0-0.5,0-0.4,0.5-0.4h9.6
			c0.4,0,0.4,0,0.4,0.4V108h11c0.4,0,0.5,0.1,0.5,0.5V115.9z"/>
	</g>
</g>
</svg>
