<?xml version="1.0" encoding="utf-8"?>
<!-- Generator: Adobe Illustrator 23.0.1, SVG Export Plug-In . SVG Version: 6.00 Build 0)  -->
<svg version="1.1" id="Layer_1" xmlns="http://www.w3.org/2000/svg" xmlns:xlink="http://www.w3.org/1999/xlink" x="0px" y="0px"
	 viewBox="0 0 122.3 45.6" style="enable-background:new 0 0 122.3 45.6;" xml:space="preserve">
<style type="text/css">
	.st0{fill:#FFFFFF;}
</style>
<polygon class="st0" points="5.7,16.3 12.4,23 25.7,9.8 19,3.1 5.7,3.1 "/>
<polygon class="st0" points="19,42.9 25.7,36.2 12.4,23 5.7,29.7 5.7,42.9 "/>
<polygon class="st0" points="25.7,36.2 32.4,42.9 45.7,42.9 45.7,29.6 39.1,23 "/>
<polygon class="st0" points="39.1,23 45.7,16.4 45.7,3.1 32.4,3.1 25.7,9.8 "/>
<g>
	<path class="st0" d="M116.6,19.8l-0.4-2c-0.6,0.2-0.9,0.3-1.2,0.3c-1.1,0-1.4-0.4-1.4-2V9.9h2.1l0.9-2.3h-2.9V4.1l-3.3,0.5v2.9H109
		v2.3h1.3v6.8c0,1.2,0,1.4,0.2,1.9c0.4,1.1,1.7,1.9,3.4,1.9C114.7,20.4,115.6,20.2,116.6,19.8"/>
</g>
<polygon class="st0" points="65.1,20.1 59.2,11 64.5,3.1 60.4,3.1 55.6,10.9 55.6,3.1 52.1,3.1 52.1,20.1 55.6,20.1 55.6,11.2 
	60.7,20.1 "/>
<g>
	<path class="st0" d="M75.9,20.1V11c0-0.8-0.1-1.3-0.2-1.8c-0.4-1.1-1.7-1.8-3-1.8c-0.7,0-1.6,0.2-2.2,0.5c-0.5,0.3-1.1,0.7-1.4,1.2
		l-0.2-1.7L66,7.8v12.2h3.3v-7.4c0-0.9,0.3-1.5,0.7-2c0.5-0.4,1-0.6,1.5-0.6c0.9,0,1.2,0.6,1.2,2v7.9H75.9z"/>
</g>
<polygon class="st0" points="81.7,20.1 81.7,7.3 78.4,7.8 78.4,20.1 "/>
<g>
	<path class="st0" d="M91.3,15.1c0,0.6-0.1,1.2-0.3,1.6c-0.3,0.6-0.8,1-1.5,1c-2,0-2.2-1.4-2.2-4c0-2.3,0.4-3.7,2.1-3.7
		c0.9,0,1.5,0.4,1.8,0.8V15.1z M91.9,7.7c0,0-0.2,0.7-0.2,1c-0.6-0.7-1.6-1.3-2.8-1.3c-3.9,0-5.2,3.5-5.2,6.8c0,3.1,1.3,6.1,5,6.1
		c1,0,2.2-0.6,2.6-1.2v1.1c0,1.9-0.2,2.8-2.6,2.8c-1.2,0-2.6-0.4-3.8-1.1l-0.8,2.3c1.6,0.8,3.1,1.3,4.8,1.3c1.3,0,3.1-0.2,4.3-1.2
		c1.2-1,1.3-2.8,1.3-4.6l0-12.3L91.9,7.7z"/>
	<path class="st0" d="M107.3,20.1v-8.7c0-1.2-0.1-1.6-0.3-2.3c-0.4-1.1-1.7-1.8-3.3-1.8c-1.4,0-2.7,0.5-3.6,1.5
		c0-0.2,0.1-0.9,0.1-1.3V2.8l-3.4,0.5v16.7h3.4v-6.9c0-1.2,0.2-1.8,0.5-2.3c0.5-0.6,1.3-0.9,2.1-0.9c1,0,1.3,0.5,1.3,1.7v8.4H107.3z
		"/>
	<path class="st0" d="M82.1,4.2c0,1.1-0.9,2-2,2c-1.1,0-2-0.9-2-2c0-1.1,0.9-2,2-2C81.2,2.1,82.1,3,82.1,4.2"/>
	<path class="st0" d="M74.5,40.9c-0.9,0-1.4-0.7-1.4-1.6c0-1.5,0.7-2,3-2h0.2l0,2.9C75.9,40.7,75.2,40.9,74.5,40.9 M79.6,38.7l0-4.2
		c0-1.3-0.1-1.7-0.2-2.2c-0.5-1.4-1.9-2.2-4.1-2.2c-1.2,0-2.2,0.2-3.5,0.7c-0.7,0.3-1.4,0.7-2,1l1.2,2.2c1.5-0.9,2.7-1.3,3.8-1.3
		c1.2,0,1.5,0.5,1.5,1.9v0.5h-0.8c-4,0-6,1.4-6,4.3c0,2.3,1.2,3.7,3.6,3.9h1.3c0.7-0.1,1.4-0.3,1.9-0.7c0.3-0.2,0.5-0.4,0.8-0.7
		c0.3,0.5,0.8,1,1.4,1.3l0.4,0.2l0.2-0.2l1.7-1.8C79.7,40.6,79.6,40,79.6,38.7"/>
</g>
<polygon class="st0" points="61.3,25.9 52.1,25.9 52.1,42.8 55.4,42.8 55.4,35.3 59.8,35.3 59.8,32.5 55.4,32.5 55.4,28.6 
	60.9,28.6 "/>
<g>
	<path class="st0" d="M69,30.3C68.5,30,68.2,30,67.8,30c-1.2,0-2.5,1.1-3,2l-0.3-1.7l-2.7,0.4v12.1h3.3v-7.7c0-0.6,0.1-1.2,0.5-1.6
		c0.3-0.3,0.9-0.6,1.5-0.6c0.4,0,0.8,0.1,1.1,0.3L69,30.3z"/>
</g>
<polygon class="st0" points="94.8,26.2 94.8,42.8 98.1,42.8 98.1,25.7 "/>
<polygon class="st0" points="101.3,35.6 105.4,30.3 101.3,30.3 98.1,35.7 102.4,42.8 106.3,42.8 "/>
<g>
	<path class="st0" d="M92.3,42.8v-9.1c0-0.8-0.1-1.3-0.2-1.8c-0.4-1.1-1.7-1.8-3-1.8c-0.7,0-1.6,0.2-2.2,0.5
		c-0.5,0.3-1.1,0.7-1.4,1.2l-0.2-1.7l-2.8,0.4v12.2h3.3v-7.4c0-0.9,0.3-1.5,0.7-2c0.5-0.4,1-0.6,1.5-0.6c0.9,0,1.2,0.6,1.2,2v7.9
		H92.3z"/>
</g>
</svg>
