<?xml version="1.0" encoding="utf-8"?>
<!-- Generator: Adobe Illustrator 23.0.1, SVG Export Plug-In . SVG Version: 6.00 Build 0)  -->
<svg version="1.1" id="Layer_1" xmlns="http://www.w3.org/2000/svg" xmlns:xlink="http://www.w3.org/1999/xlink" x="0px" y="0px"
	 viewBox="0 0 186.3 186.3" style="enable-background:new 0 0 186.3 186.3;" xml:space="preserve">
<style type="text/css">
	.st0{fill:#1D252C;}
</style>
<g>
	<polygon class="st0" points="147.5,139 147.5,119.6 116.3,119.6 116.3,139 69.9,139 69.9,119.6 38.7,119.6 38.7,139 14,139 
		14,143.2 42.9,143.2 42.9,123.8 65.7,123.8 65.7,143.2 120.5,143.2 120.5,123.8 143.3,123.8 143.3,143.2 172.8,143.2 172.8,139 	
		"/>
	<polygon class="st0" points="42.4,47.4 65.2,47.4 65.2,66.8 120,66.8 120,47.4 142.8,47.4 142.8,66.8 172.3,66.8 172.3,62.6 
		147,62.6 147,43.2 115.8,43.2 115.8,62.6 69.4,62.6 69.4,43.2 38.2,43.2 38.2,62.6 13.6,62.6 13.6,66.8 42.4,66.8 	"/>
	<polygon class="st0" points="17.7,105 42.4,105 42.4,85.6 65.2,85.6 65.2,105 120,105 120,85.6 142.8,85.6 142.8,105 168.1,105 
		172.3,105 172.3,100.8 172.3,75.4 168.1,75.4 168.1,100.8 147,100.8 147,81.4 115.8,81.4 115.8,100.8 69.4,100.8 69.4,81.4 
		38.2,81.4 38.2,100.8 13.6,100.8 13.6,101 13.6,105 13.6,130.6 17.7,130.6 	"/>
</g>
</svg>
