<?xml version="1.0" encoding="utf-8"?>
<!-- Generator: Adobe Illustrator 23.0.1, SVG Export Plug-In . SVG Version: 6.00 Build 0)  -->
<svg version="1.1" id="Layer_1" xmlns="http://www.w3.org/2000/svg" xmlns:xlink="http://www.w3.org/1999/xlink" x="0px" y="0px"
	 viewBox="0 0 186.3 186.3" style="enable-background:new 0 0 186.3 186.3;" xml:space="preserve">
<style type="text/css">
	.st0{fill:#FF4438;}
</style>
<g>
	<polygon class="st0" points="101.2,138.2 84,144.1 84,135.8 80.2,135.8 80.2,149.5 105,140.9 105,130.6 101.2,130.6 	"/>
	<polygon class="st0" points="101.2,157.3 84,163.3 84,155 80.2,155 80.2,168.6 105,160.1 105,149.8 101.2,149.8 	"/>
	<polygon class="st0" points="80.2,177 80.2,181.2 105,172.7 105,168.4 	"/>
	<path class="st0" d="M92.5,35.6c-25,0-45.4,19-45.4,44.6c0,25.4,20.5,44.4,45.4,44.4v-3.8c-23.2,0-41.7-18.1-41.7-40.6
		c0-22.5,18.4-40.8,41.7-40.8c23.2,0,41.7,18.3,41.7,40.8c0,18.7-15.1,33.8-33.5,33.8c-18.4,0-33.4-15.1-33.4-33.8
		c0-13.9,11.3-25.3,25.3-25.3c13.9,0,25.3,11.3,25.3,25.3c0,13.9-11.3,25.1-25.3,25.1v3.8c16,0,29-12.9,29-28.9c0-16-13.1-29-29-29
		c-16,0-29,13.1-29,29c0,20.8,16.7,37.6,37.2,37.6c20.5,0,37.3-16.8,37.3-37.6C138,54.6,117.3,35.6,92.5,35.6z"/>
	<rect x="90.9" y="82.9" class="st0" width="4.2" height="25.9"/>
	<g>
		<path class="st0" d="M54.5,35.3L43.9,24.6l-2.7,2.7l10.4,10.4C52.5,36.9,53.5,36.1,54.5,35.3z"/>
		<path class="st0" d="M32.9,74.8l-11.6,0l0,3.8l11.3,0C32.7,77.3,32.8,76.1,32.9,74.8z"/>
		<path class="st0" d="M92.3,22.1c1,0,2,0,3,0.1l0.1-17l-3.8,0l-0.1,16.9C91.7,22.1,92,22.1,92.3,22.1z"/>
		<path class="st0" d="M134.2,38.9l11.3-11.2l-2.7-2.7l-11.4,11.3C132.4,37.2,133.3,38,134.2,38.9z"/>
		<path class="st0" d="M151.7,75.3c0.1,1.3,0.2,2.5,0.2,3.8l13,0.1l0-3.8L151.7,75.3z"/>
	</g>
</g>
</svg>
