<?xml version="1.0" encoding="utf-8"?>
<!-- Generator: Adobe Illustrator 23.0.1, SVG Export Plug-In . SVG Version: 6.00 Build 0)  -->
<svg version="1.1" id="Layer_1" xmlns="http://www.w3.org/2000/svg" xmlns:xlink="http://www.w3.org/1999/xlink" x="0px" y="0px"
	 viewBox="0 0 650.3 288.8" style="enable-background:new 0 0 650.3 288.8;" xml:space="preserve">
<style type="text/css">
	.st0{fill:#FFFFFF;}
	.st1{fill:#FF4438;}
</style>
<g>
	<g>
		<path class="st0" d="M51.2,159.6h16.5v17.3c-5.4,4.6-11.7,7.5-19.4,7.5c-19.4,0-35.1-15.6-35.1-34.7c0-19.2,15.8-34.7,35.1-34.7
			c11.1,0,21.3,4.6,28.6,11.9l-10,9.9c-4.7-4.8-11.3-7.8-18.6-7.8C33.8,129,22,140.9,22,155.4h-2.7c0-16.1,13-29,29-29
			c6.7,0,13.2,2.3,18.6,6.8l6.3-6.2c-6.8-5.9-15.6-9.3-24.9-9.3c-17.9,0-32.4,14.3-32.4,32s14.5,32,32.4,32c6.3,0,12.1-2.3,16.7-6
			v-13.5H48.4v-14H79v33.5c-7.5,8.8-18.5,14-30.7,14c-22.9,0-41.2-18.1-41.2-40.4h2.7c0,20.8,17.1,37.7,38.5,37.7
			c10.5,0,20.9-4.4,28-12.4V151H51.2V159.6z"/>
		<path class="st0" d="M148.2,130.8h-43.9v-2.7h41.2v-8.7H94.1v28.8h47v14h-35V180h42.1v14H91.4v-34.4h2.7v31.7h51.4v-8.7h-42.1
			v-23.1h35V151h-47v-34.2h56.8V130.8z"/>
		<path class="st0" d="M204,189v-15.4l-33.7-55.4l2.3-1.3l31.4,51.6v-51.6h14.6V194h-2.7l-9.3-15.7V194H204l-31.4-51.5V194h-14.6
			v-77.2h2.7v74.6h9.2v-51.5h4.1L204,189z M206.6,173.2l9.3,15.7v-69.4h-9.3V173.2z"/>
		<path class="st1" d="M287.7,130.8h-43.9v-2.7H285v-8.7h-51.4v28.8h47v14h-35V180h42.1v14H231v-34.4h2.7v31.7H285v-8.7h-42.1v-23.1
			h35V151h-47v-34.2h56.8V130.8z"/>
		<path class="st1" d="M337.8,156.8l4,7.9c8.3-3.7,14.2-11.7,14.2-21.6c0-13.5-11-23.7-24.5-23.7h-34v-2.7h34
			c15.1,0,27.2,11.2,27.2,26.4c0,11-6.4,20-15.8,24l13.6,26.9h-16.4l-12.4-24.5h-18.3v-11.3h-9.3v33.2h11.9v2.7h-14.6v-38.5h11.9
			v-27.4h22c8.2,0,14.6,6.7,14.6,15C346.1,149.2,342.7,154.5,337.8,156.8z M312.1,155.5h11.6l5.7,11.3h2.1c2.7,0,5.4-0.4,7.8-1.1
			l-5.3-10.4c5.5-1.2,9.4-6.2,9.4-12.2c0-6.8-5.1-12.4-11.9-12.4h-19.4V155.5z M312.1,166.8h14.2l-4.2-8.7h-10V166.8z M352.2,191.3
			l-11.7-23.2c-2.8,0.9-5.9,1.3-9,1.3h-0.7l11,21.8H352.2z"/>
		<path class="st1" d="M378.2,191.3v2.7h-15.8l9.9-28h12.4l10.9-34.2h3.9l11.1,36.9h-24l-2.8,8.7h30.2l4.8,14H429l-25.3-72h-12.1
			l-13.5,38l-2.5-0.8l14-39.8h15.9l27.2,77.2H417l-4.8-14h-31.8l3.6-11.3h-9.7l-8,22.7H378.2z M387.5,166h19.6l-9.5-31.5L387.5,166z
			"/>
		<path class="st0" d="M462.2,191.3v-60.6h-34.8v-14h60.4v14H485v-11.3h-55v8.7h34.8V194h-14.6v-54.6h2.7v51.9H462.2z"/>
		<path class="st0" d="M526.6,181.8c14.5,0,26.4-11.8,26.4-26.4c0-17.9-14.3-32.5-32-32.5c-17.9,0-32.6,14.6-32.6,32.5
			c0,20.8,17,37.7,38.3,37.7c21.3,0,38.3-16.9,38.3-37.7c0-20.8-17-37.7-38.3-37.7V115c22.8,0,41,18.1,41,40.4
			c0,22.2-18.2,40.4-41,40.4c-22.8,0-41-18.1-41-40.4c0-19.4,16-35.2,35.3-35.2c19.2,0,34.7,15.9,34.7,35.2c0,16.1-13,29-29,29
			c-16.1,0-29-13-29-29c0-16.1,13-29,29-29v2.7c-14.5,0-26.4,11.8-26.4,26.4C500.3,169.9,512.1,181.8,526.6,181.8z"/>
		<path class="st0" d="M617.7,156.8l4,7.9c8.3-3.7,14.2-11.7,14.2-21.6c0-13.5-11-23.7-24.5-23.7h-34v-2.7h34
			c15.1,0,27.2,11.2,27.2,26.4c0,11-6.4,20-15.8,24l13.6,26.9H620l-12.4-24.5h-18.3v-11.3h-9.3v33.2H592v2.7h-14.6v-38.5h11.9v-27.4
			h22c8.2,0,14.6,6.7,14.6,15C626,149.2,622.6,154.5,617.7,156.8z M592,155.5h11.6l5.7,11.3h2.1c2.7,0,5.4-0.4,7.8-1.1l-5.3-10.4
			c5.5-1.2,9.4-6.2,9.4-12.2c0-6.8-5.1-12.4-11.9-12.4H592V155.5z M592,166.8h14.2l-4.2-8.7h-10V166.8z M632.1,191.3l-11.7-23.2
			c-2.8,0.9-5.9,1.3-9,1.3h-0.7l11,21.8H632.1z"/>
	</g>
	<g>
		<path class="st1" d="M395.1,272.5c0,7.2-5.6,11.6-14.2,11.6h-27.5c-0.7,0-0.7-0.1-0.7-0.9v-43c0-0.5,0.2-0.7,0.9-0.7H379
			c9.1,0,14.6,4.6,14.6,12c0,4.8-2.8,8.7-8.5,10.2C390.9,261.9,395.1,267.3,395.1,272.5z M377.2,252.8c0-2.1-1.2-3.6-4.1-3.6H368
			v7.1h5.1C376.1,256.3,377.2,254.8,377.2,252.8z M378.4,270.7c0-2.2-1.3-3.6-4.2-3.6H368v7.3h6.2
			C377.2,274.4,378.4,272.9,378.4,270.7z"/>
		<path class="st1" d="M447.4,283.7c0,0.3-0.3,0.3-0.9,0.3h-16.9c-0.6,0-0.9-0.1-1.6-1.3c-2.5-4.3-6.7-11.4-6.7-11.4l-4.6,0.3v11.8
			c0,0.5-0.1,0.6-0.7,0.6h-13.9c-0.7,0-0.7,0.1-0.7-0.6v-43.4c0-0.7,0.3-0.6,0.7-0.6h23.6c11.2,0,16.4,7,16.4,15
			c0,6-2.3,10.3-6.4,12c1.8,2.7,6.7,9.7,10.9,15.8C447.1,283,447.4,283.4,447.4,283.7z M425.5,255.6c0-3.7-1.8-5.3-6.1-5.3h-2.8
			v10.4h2.8C423.3,260.8,425.5,259.4,425.5,255.6z"/>
		<path class="st1" d="M467.4,283.4c0,0.5-0.1,0.6-0.7,0.6h-14.5c-0.7,0-0.7,0.1-0.7-0.6v-43.4c0-0.7,0-0.6,0.7-0.6h14.5
			c0.6,0,0.7,0.1,0.7,0.6V283.4z"/>
		<path class="st1" d="M511.8,268.6c0,11-8.7,17-19.7,17c-8.9,0-15-3.9-17.6-10.1c-0.4-1.1-0.3-1.1,0.3-1.2l9.8-3.7
			c0.6-0.2,0.7-0.2,0.8,0.3c0.7,2.4,3.4,4.3,6.2,4.3c3.1,0,4.6-1.4,4.6-3.4c0-2.2-1.8-3-5.7-3.4c-0.5-0.1-1.2-0.1-1.6-0.2
			c-5-0.4-13.7-2.7-13.7-13.3c0-10.3,6.6-16.8,19.1-16.8c9.2,0,14.8,3.9,16,9.7c0.2,0.8,0.2,0.9-0.5,1.1l-9.3,3.4
			c-0.5,0.3-0.6,0.3-0.8-0.3c-1.1-2.4-2.8-3.7-6-3.7c-3.1,0-4.3,1.3-4.3,3.1c0,2,1.7,2.6,6.6,3.4c0.7,0.1,1.4,0.2,2.4,0.3
			C505.8,256.2,511.8,259.3,511.8,268.6z"/>
		<path class="st1" d="M554.4,251.3c0,0.4-0.1,0.5-0.5,0.5l-11.6-0.7v32.4c0,0.5-0.1,0.6-0.7,0.6h-14.3c-0.7,0-0.7,0.1-0.7-0.6V251
			l-12,0.7c-0.5,0-0.5-0.1-0.5-0.5v-11.2c0-0.5,0-0.7,0.5-0.7h39c0.5,0,0.5,0.1,0.5,0.7V251.3z"/>
		<path class="st1" d="M604.4,261.9c0,13.9-11.4,23.7-24.1,23.7c-14.1,0-24.1-10.4-24.1-23.8c0-14.1,11-23.7,24.1-23.7
			C592.8,238.1,604.4,247.2,604.4,261.9z M588.6,261.7c0-5.1-3.3-8.2-8.3-8.2c-5.1,0-8.3,3.4-8.3,8.2c0,5.5,3.4,8.6,8.3,8.6
			C585,270.4,588.6,267.1,588.6,261.7z"/>
		<path class="st1" d="M643.2,283.4c0,0.5-0.1,0.6-0.7,0.6h-30.8c-0.7,0-0.7,0.1-0.7-0.6v-43.4c0-0.7,0-0.6,0.7-0.6h14
			c0.6,0,0.7,0.1,0.7,0.6v31.7h16c0.6,0,0.7,0.1,0.7,0.7V283.4z"/>
	</g>
	<g>
		<path class="st1" d="M261.2,75.4V59.9L227.6,4.5l2.3-1.3l31.4,51.6V3.2h14.6v77.2h-2.7l-9.3-15.7v15.7h-2.7l-31.4-51.5v51.5h-14.6
			V3.2h2.7v74.6h9.2V26.2h4.1L261.2,75.4z M263.9,59.6l9.3,15.7V5.9h-9.3V59.6z"/>
		<path class="st1" d="M345,17.2h-43.9v-2.7h41.2V5.9h-51.4v28.8h47v14h-35v17.7H345v14h-56.8V46h2.7v31.7h51.4v-8.7h-42.1V46h35
			v-8.7h-47V3.2H345V17.2z"/>
		<path class="st1" d="M401.6,24.6l14.7,53.1h10.2l20.4-72h-11.4V3.2h14.9l-21.8,77.2h-14.2l-14.1-51.2l-14.1,51.2H372L350.1,3.2
			h14.9l14,51.1l14.1-51.1h2.7l4.4,16.4l4.4-16.4h2.7l14.6,53l-2.6,0.7L406.1,8.4L401.6,24.6z M394.5,8.4l-13.4,48.5h-4l-14-51.2
			h-9.5l20.4,72h10.2l14.7-53.1L394.5,8.4z"/>
	</g>
</g>
</svg>
