<?xml version="1.0" encoding="utf-8"?>
<!-- Generator: Adobe Illustrator 23.0.1, SVG Export Plug-In . SVG Version: 6.00 Build 0)  -->
<svg version="1.1" id="Layer_1" xmlns="http://www.w3.org/2000/svg" xmlns:xlink="http://www.w3.org/1999/xlink" x="0px" y="0px"
	 viewBox="0 0 186.3 186.3" style="enable-background:new 0 0 186.3 186.3;" xml:space="preserve">
<style type="text/css">
	.st0{fill:#FFFFFF;}
</style>
<g>
	<g>
		<polygon class="st0" points="15.9,30.1 15.9,48.1 32.4,48.1 32.4,104.2 32.4,104.2 32.4,127.1 35.8,127.1 35.8,82.1 35.8,82.1 
			35.8,44.6 19.4,44.6 19.4,33.5 39.7,33.5 39.7,48.1 43.1,48.1 43.1,30.1 		"/>
		<polygon class="st0" points="26.7,82.1 26.7,82.1 26.7,59.2 23.2,59.2 23.2,104.2 23.2,104.2 23.2,141.7 39.3,141.7 39.3,152.8 
			19,152.8 19,138.2 15.5,138.2 15.5,156.2 42.7,156.2 42.7,138.2 26.7,138.2 		"/>
	</g>
	<g>
		<polygon class="st0" points="58.5,30.1 58.5,48.1 74.9,48.1 74.9,104.2 74.9,104.2 74.9,127.1 78.4,127.1 78.4,82.1 78.4,82.1 
			78.4,44.6 61.9,44.6 61.9,33.5 82.2,33.5 82.2,48.1 85.7,48.1 85.7,30.1 		"/>
		<polygon class="st0" points="69.2,82.1 69.2,82.1 69.2,59.2 65.8,59.2 65.8,104.2 65.8,104.2 65.8,141.7 81.8,141.7 81.8,152.8 
			61.5,152.8 61.5,138.2 58.1,138.2 58.1,156.2 85.2,156.2 85.2,138.2 69.2,138.2 		"/>
	</g>
	<g>
		<polygon class="st0" points="143.6,30.1 143.6,48.1 160,48.1 160,104.2 160,104.2 160,127.1 163.5,127.1 163.5,82.1 163.5,82.1 
			163.5,44.6 147,44.6 147,33.5 167.3,33.5 167.3,48.1 170.8,48.1 170.8,30.1 		"/>
		<polygon class="st0" points="154.4,82.1 154.3,82.1 154.3,59.2 150.9,59.2 150.9,104.2 150.9,104.2 150.9,141.7 166.9,141.7 
			166.9,152.8 146.6,152.8 146.6,138.2 143.2,138.2 143.2,156.2 170.4,156.2 170.4,138.2 154.4,138.2 		"/>
	</g>
	<g>
		<polygon class="st0" points="101.1,30.1 101.1,48.1 117.5,48.1 117.5,104.2 117.5,104.2 117.5,127.1 120.9,127.1 120.9,82.1 
			120.9,82.1 120.9,44.6 104.5,44.6 104.5,33.5 124.8,33.5 124.8,48.1 128.2,48.1 128.2,30.1 		"/>
		<polygon class="st0" points="111.8,82.1 111.8,82.1 111.8,59.2 108.3,59.2 108.3,104.2 108.4,104.2 108.4,141.7 124.4,141.7 
			124.4,152.8 104.1,152.8 104.1,138.2 100.6,138.2 100.6,156.2 127.8,156.2 127.8,138.2 111.8,138.2 		"/>
	</g>
</g>
</svg>
