<?xml version="1.0" encoding="utf-8"?>
<!-- Generator: Adobe Illustrator 23.0.1, SVG Export Plug-In . SVG Version: 6.00 Build 0)  -->
<svg version="1.1" id="Layer_1" xmlns="http://www.w3.org/2000/svg" xmlns:xlink="http://www.w3.org/1999/xlink" x="0px" y="0px"
	 viewBox="0 0 186.3 186.3" style="enable-background:new 0 0 186.3 186.3;" xml:space="preserve">
<style type="text/css">
	.st0{fill:none;stroke:#1D252C;stroke-width:3.0452;stroke-miterlimit:10;}
</style>
<path class="st0" d="M112.6,112.8c0-3.6,2.8-6.5,6.3-6.5s6.3,2.9,6.3,6.5c0,3.6-2.8,6.5-6.3,6.5
	C115.4,119.2,112.6,116.3,112.6,112.8 M67.2,37.8h26H118c6.7,0,10.3,5,10.3,10.6v13.7c0.1,6.6-4.6,10.6-10.3,10.6H93.2h0h0H68.3
	c-5.7,0-10.4-4-10.3-10.6V48.5 M83.1,25c0-1.4,1.2-2.6,2.6-2.6h7.5h0h0h7.5c1.4,0,2.5,1.2,2.5,2.6v4.5c0,1.4-1.1,2.6-2.5,2.6h-7.5h0
	h0h-7.5c-1.4,0-2.6-1.2-2.6-2.6V25z M93.1,144.2L93.1,144.2L93.1,144.2h23.4l17.1,25.7h13.8l-23.9-36.8c8-1.3,15.9-9.8,15.9-20.2V37
	c0-10.7-8.8-20.6-20.7-20.6l-25.4,0l-25.6,0c-11.9,0-20.7,9.8-20.7,20.6v76c0,10.4,7.9,18.9,15.9,20.2L39,169.9h13.8l16.5-25.3
	 M60.9,112.8c0-3.6,2.8-6.5,6.3-6.5s6.3,2.9,6.3,6.5c0,3.6-2.8,6.5-6.3,6.5C63.7,119.2,60.9,116.3,60.9,112.8"/>
</svg>
