<?xml version="1.0" encoding="utf-8"?>
<!-- Generator: Adobe Illustrator 23.0.1, SVG Export Plug-In . SVG Version: 6.00 Build 0)  -->
<svg version="1.1" id="Layer_1" xmlns="http://www.w3.org/2000/svg" xmlns:xlink="http://www.w3.org/1999/xlink" x="0px" y="0px"
	 viewBox="0 0 186.3 186.3" style="enable-background:new 0 0 186.3 186.3;" xml:space="preserve">
<style type="text/css">
	.st0{fill:#1D252C;}
</style>
<g>
	<g>
		<path class="st0" d="M30.2,52.8C36.1,65,48.8,75.1,63.5,75.1c11.7,0,22.6-6.6,28-17.9c5.9-12.6,18.2-20,31.3-20
			c17.6,0,32.4,12.9,38,27.8l-18.2,6.3c-3.1-8.8-11.2-16.1-22.2-16.1c-9.2,0-17.9,5.2-22.1,14l-3.2-1.5
			c4.6-10.1,14.7-16.1,25.2-16.1c10.1,0,19,5.3,24.3,15.2l11.5-3.9c-5.9-12.2-18.7-22.2-33.3-22.2c-11.9,0-22.6,6.6-28,17.9
			c-5.9,12.7-18.2,20-31.5,20c-17.5,0-32.4-12.9-37.9-27.8l3.6-1.3L30.2,52.8z"/>
	</g>
	<path class="st0" d="M158.9,96c-6.6-13-20.2-23.4-36.1-23.4c-13.1,0-25.4,7.4-31.3,20c-5.3,11.3-16.2,17.9-28,17.9
		c-14.7,0-27.4-10.1-33.3-22.2l-1.1-3.4l-3.6,1.3c5.5,15,20.4,27.8,37.9,27.8c13.3,0,25.6-7.3,31.5-20c5.3-11.3,16.1-17.9,28-17.9
		c14.1,0,26.6,9.5,32.7,21.1L158.9,96z"/>
	<path class="st0" d="M158.9,60.9c-6.6-13-20.2-23.4-36.1-23.4c-13.1,0-25.4,7.4-31.3,20c-5.3,11.3-16.2,17.9-28,17.9
		c-14.7,0-27.4-10.1-33.3-22.2l-1.1-3.4L25.5,51c5.5,15,20.4,27.8,37.9,27.8c13.3,0,25.6-7.3,31.5-20c5.3-11.3,16.1-17.9,28-17.9
		c14.1,0,26.6,9.5,32.7,21.1L158.9,60.9z"/>
	<path class="st0" d="M158.9,131.2c-6.6-13-20.2-23.4-36.1-23.4c-13.1,0-25.4,7.4-31.3,20c-5.3,11.3-16.2,17.9-28,17.9
		c-14.7,0-27.4-10.1-33.3-22.2l-1.1-3.4l-3.6,1.3c5.5,15,20.4,27.8,37.9,27.8c13.3,0,25.6-7.3,31.5-20c5.3-11.3,16.1-17.9,28-17.9
		c14.1,0,26.6,9.5,32.7,21.1L158.9,131.2z"/>
</g>
</svg>
